<svg width="24" height="24" viewBox="0 0 24 24" fill="none" xmlns="http://www.w3.org/2000/svg">
<g clip-path="url(#clip0_3277_7824)">
<path d="M1.93129 1.93113H7.03129V0.716133H0.716289V7.03113H1.93129V1.93113ZM16.9688 0.716133V1.93113H22.0688V7.03113H23.2838V0.716133H16.9688ZM22.0688 22.0686H16.9688V23.2836H23.2838V16.9686H22.0688V22.0686ZM1.93129 16.9686H0.716289V23.2836H7.03129V22.0686H1.93129V16.9686ZM11.4263 0.442383H12.5738V2.22363H11.4263V0.442383ZM11.4263 7.41738H12.5738V9.40488H11.4263V7.41738ZM11.4263 3.82863H12.5738V5.81613H11.4263V3.82863ZM11.4263 18.1836H12.5738V20.1711H11.4263V18.1836ZM11.4263 14.5949H12.5738V16.5824H11.4263V14.5949ZM11.4263 21.7724H12.5738V23.5536H11.4263V21.7724ZM0.540039 11.4261H2.32129V12.5736H0.540039V11.4261ZM7.46254 11.4261H9.43129V12.5736H7.46254V11.4261ZM3.90754 11.4261H5.87629V12.5736H3.90754V11.4261ZM18.1238 11.4261H20.0925V12.5736H18.1238V11.4261ZM14.5688 11.4261H16.5375V12.5736H14.5688V11.4261ZM21.6788 11.4261H23.46V12.5736H21.6788V11.4261Z" fill="#949494"/>
</g>
<defs>
<clipPath id="clip0_3277_7824">
<rect width="24" height="24" fill="white"/>
</clipPath>
</defs>
</svg>
