<svg width="10" height="14" viewBox="0 0 10 14" fill="none" xmlns="http://www.w3.org/2000/svg">
<path fill-rule="evenodd" clip-rule="evenodd" d="M0.199997 2.19998C0.199997 1.77563 0.368568 1.36866 0.668626 1.0686C0.968684 0.768546 1.37565 0.599976 1.8 0.599976H5.4688C5.89311 0.600066 6.30001 0.768697 6.6 1.06878L9.3312 3.79998C9.63128 4.09996 9.79991 4.50686 9.8 4.93118V11.8C9.8 12.2243 9.63143 12.6313 9.33137 12.9313C9.03131 13.2314 8.62434 13.4 8.2 13.4H1.8C1.37565 13.4 0.968684 13.2314 0.668626 12.9313C0.368568 12.6313 0.199997 12.2243 0.199997 11.8V2.19998ZM1.8 6.99998C1.8 6.7878 1.88428 6.58432 2.03431 6.43429C2.18434 6.28426 2.38782 6.19998 2.6 6.19998H7.4C7.61217 6.19998 7.81565 6.28426 7.96568 6.43429C8.11571 6.58432 8.2 6.7878 8.2 6.99998C8.2 7.21215 8.11571 7.41563 7.96568 7.56566C7.81565 7.71569 7.61217 7.79998 7.4 7.79998H2.6C2.38782 7.79998 2.18434 7.71569 2.03431 7.56566C1.88428 7.41563 1.8 7.21215 1.8 6.99998ZM2.6 9.39998C2.38782 9.39998 2.18434 9.48426 2.03431 9.63429C1.88428 9.78432 1.8 9.9878 1.8 10.2C1.8 10.4121 1.88428 10.6156 2.03431 10.7657C2.18434 10.9157 2.38782 11 2.6 11H7.4C7.61217 11 7.81565 10.9157 7.96568 10.7657C8.11571 10.6156 8.2 10.4121 8.2 10.2C8.2 9.9878 8.11571 9.78432 7.96568 9.63429C7.81565 9.48426 7.61217 9.39998 7.4 9.39998H2.6Z" fill="#999"/>
</svg>
