<svg width="21" height="20" viewBox="0 0 21 20" fill="none" xmlns="http://www.w3.org/2000/svg">
<path d="M17.914 2.586C17.5389 2.21106 17.0303 2.00043 16.5 2.00043C15.9697 2.00043 15.4611 2.21106 15.086 2.586L7.5 10.172V13H10.328L17.914 5.414C18.2889 5.03894 18.4996 4.53033 18.4996 4C18.4996 3.46967 18.2889 2.96106 17.914 2.586Z" fill="#666666"/>
<path fill-rule="evenodd" clip-rule="evenodd" d="M2.5 6C2.5 5.46957 2.71071 4.96086 3.08579 4.58579C3.46086 4.21071 3.96957 4 4.5 4H8.5C8.76522 4 9.01957 4.10536 9.20711 4.29289C9.39464 4.48043 9.5 4.73478 9.5 5C9.5 5.26522 9.39464 5.51957 9.20711 5.70711C9.01957 5.89464 8.76522 6 8.5 6H4.5V16H14.5V12C14.5 11.7348 14.6054 11.4804 14.7929 11.2929C14.9804 11.1054 15.2348 11 15.5 11C15.7652 11 16.0196 11.1054 16.2071 11.2929C16.3946 11.4804 16.5 11.7348 16.5 12V16C16.5 16.5304 16.2893 17.0391 15.9142 17.4142C15.5391 17.7893 15.0304 18 14.5 18H4.5C3.96957 18 3.46086 17.7893 3.08579 17.4142C2.71071 17.0391 2.5 16.5304 2.5 16V6Z" fill="#666666"/>
</svg>
